<?xml version="1.0" standalone="no"?>
<!DOCTYPE svg PUBLIC "-//W3C//DTD SVG 20010904//EN"
 "http://www.w3.org/TR/2001/REC-SVG-20010904/DTD/svg10.dtd">
<svg version="1.0" xmlns="http://www.w3.org/2000/svg"
 width="512.000000pt" height="512.000000pt" viewBox="0 0 512.000000 512.000000"
 preserveAspectRatio="xMidYMid meet">
<metadata>
Created by potrace 1.14, written by Peter Selinger 2001-2017
</metadata>
<g transform="translate(0.000000,512.000000) scale(0.100000,-0.100000)"
fill="#000000" stroke="none">
<path d="M2425 3879 c-188 -30 -323 -62 -390 -93 -199 -91 -288 -148 -400
-255 -123 -119 -186 -204 -256 -351 -17 -36 -37 -77 -44 -92 -23 -46 -63 -208
-75 -298 -17 -133 -19 -140 -69 -193 -45 -48 -46 -51 -52 -128 -4 -59 -10 -85
-26 -101 -24 -27 -53 -104 -53 -139 0 -14 10 -53 21 -88 17 -51 34 -75 84
-124 34 -34 74 -84 88 -112 27 -53 53 -76 102 -87 43 -10 119 9 149 37 24 22
26 30 26 112 0 56 -7 112 -19 153 -10 36 -21 92 -26 125 -4 33 -11 67 -15 76
-5 9 -15 56 -23 106 -16 97 -33 139 -79 192 -26 30 -29 39 -24 80 3 25 8 75
12 111 3 36 12 76 19 90 7 14 16 41 20 60 17 86 67 195 143 310 56 84 242 280
267 280 7 0 18 7 25 15 32 39 222 130 360 173 98 31 306 55 414 49 151 -10
253 -25 312 -46 30 -12 63 -21 74 -21 22 0 195 -83 220 -105 9 -8 20 -15 24
-15 20 0 163 -111 217 -169 84 -90 90 -97 136 -167 95 -144 164 -332 182 -496
14 -124 15 -112 -17 -150 -37 -44 -70 -121 -81 -188 -17 -107 -42 -236 -56
-285 -27 -93 -37 -202 -24 -243 6 -20 15 -41 20 -46 16 -17 10 -115 -8 -144
-96 -152 -299 -332 -463 -410 -78 -37 -181 -72 -210 -72 -16 0 -51 -5 -78 -11
-60 -14 -92 -7 -134 30 -69 60 -181 75 -261 35 -62 -31 -87 -63 -87 -111 0
-77 71 -123 193 -123 66 0 108 15 155 55 27 22 47 29 110 36 42 5 99 15 126
24 27 8 58 15 69 15 20 0 187 80 257 122 107 66 273 226 345 333 18 27 52 69
74 92 23 23 41 49 41 56 0 8 13 20 29 26 35 15 83 64 108 112 11 20 46 61 79
92 51 47 62 65 82 125 12 39 22 80 22 93 0 36 -31 111 -57 140 -20 21 -23 36
-23 96 l0 70 -53 60 -53 59 -13 117 c-7 65 -21 143 -32 174 -10 31 -19 63 -19
71 0 14 -10 39 -68 162 -68 145 -194 307 -317 405 -38 31 -78 63 -88 71 -46
37 -294 154 -328 154 -8 0 -27 7 -42 15 -28 15 -146 37 -282 55 -83 11 -190
10 -260 -1z"/>
<path d="M2415 3444 c-164 -25 -325 -99 -434 -198 -81 -74 -160 -160 -182
-198 -48 -84 -100 -203 -110 -251 -5 -28 -17 -79 -26 -113 -19 -76 -14 -203
15 -329 33 -150 86 -260 179 -372 73 -88 117 -128 202 -186 91 -63 111 -48
111 86 0 69 4 89 20 110 20 25 23 26 165 29 172 4 179 7 180 94 1 86 -2 88
-155 94 -142 5 -141 5 -160 70 -13 45 -13 531 0 565 5 14 25 35 44 46 45 26
49 40 33 124 -11 54 -21 78 -46 105 -26 28 -31 41 -26 64 9 48 33 67 79 64 34
-2 43 -8 55 -33 12 -24 12 -36 1 -75 -15 -51 -16 -73 -5 -149 13 -89 18 -91
210 -91 192 0 184 -5 205 118 11 66 10 78 -5 112 -29 65 -2 120 60 120 35 0
55 -19 69 -66 6 -20 0 -30 -59 -110 -8 -11 -18 -47 -21 -80 l-6 -59 46 -46
c53 -54 49 -19 47 -376 -1 -128 -6 -244 -11 -258 -13 -35 -47 -45 -155 -45
-52 0 -106 -5 -120 -12 -23 -10 -25 -16 -25 -79 0 -56 3 -70 18 -78 11 -6 80
-12 155 -15 76 -3 146 -10 156 -16 26 -14 30 -30 32 -130 1 -52 7 -94 15 -107
14 -22 15 -22 52 -5 72 33 208 156 282 257 20 27 51 82 69 120 18 39 37 78 42
87 23 43 59 234 59 311 0 90 -37 284 -64 332 -9 17 -16 35 -16 40 -1 24 -100
179 -155 239 -146 164 -320 257 -541 291 -118 17 -156 17 -279 -1z"/>
<path d="M2352 2748 c-41 -20 -50 -115 -14 -151 32 -32 112 -31 144 1 34 34
31 107 -6 139 -30 25 -84 30 -124 11z"/>
<path d="M2645 2735 c-29 -28 -33 -58 -20 -122 8 -36 89 -55 140 -31 27 12 39
41 39 97 0 73 -105 110 -159 56z"/>
<path d="M2443 2380 c-13 -5 -23 -18 -23 -29 0 -25 25 -31 151 -31 120 0 150
11 125 45 -13 18 -28 20 -123 22 -59 2 -118 -2 -130 -7z"/>
<path d="M2505 1611 c-24 -4 -41 -12 -43 -21 -1 -9 20 -40 47 -70 42 -47 52
-53 67 -44 22 13 82 94 83 111 1 20 -89 34 -154 24z"/>
</g>
</svg>
